<svg width="240" height="52" viewBox="0 0 240 52" fill="none" xmlns="http://www.w3.org/2000/svg"><path fill-rule="evenodd" clip-rule="evenodd" d="M101.937 44.412a3.567 3.567 0 01-3.562 3.572 3.567 3.567 0 01-3.563-3.573 3.567 3.567 0 013.563-3.572 3.484 3.484 0 012.542 1.024 3.504 3.504 0 011.022 2.548l-.002.001zm48.36 2.17v1.224l-4.188-.002v-6.822h4.188v1.223h-2.904v1.448h2.746v1.223h-2.746v1.707h2.904zm-41.906-4.374v-1.224h-3.905v6.824h1.282v-2.93h2.461v-1.223h-2.461v-1.447h2.623zm34.533-1.224h1.397l-2.997 6.822h-.467l-2.99-6.822h1.396l1.831 4.334 1.83-4.334zm-8.066 0v4.121l-3.572-4.12h-.637v6.821h1.281v-4.123l3.574 4.123h.636v-6.822h-1.282zm-19.335 0v6.822h2.159c1.193 0 3.68-.347 3.68-3.411s-2.486-3.41-3.68-3.41h-2.159zm4.547 3.411c0-1.651-.938-2.188-2.418-2.188h-.843v4.377h.843c1.418 0 2.418-.536 2.418-2.19v.001zm7.972 3.411v-1.223h-2.905v-1.707h2.746v-1.223h-2.746v-1.448h2.906v-1.223h-4.188v6.822l4.187.002zm29.567-4.566a2.08 2.08 0 01-1.342 2.014l1.552 2.552h-1.435l-2.096-3.447v-.086h.833a1.065 1.065 0 001.183-1.033 1.04 1.04 0 00-1.183-1.033h-.963v5.6h-1.281v-6.822h2.269c.967 0 2.463.513 2.463 2.255zm-59.292-.987a2.246 2.246 0 012.301 2.159h.002a2.27 2.27 0 01-.63 1.644 2.255 2.255 0 01-1.614.695 2.246 2.246 0 01-2.243-2.22 2.247 2.247 0 012.184-2.278zm-3.27-8.006c.947.22 1.908.374 2.877.463l-.001.002c2.368 0 4.46-1.273 4.462-3.6 0-1.541-1.205-2.654-3.114-4.05l-.448-.306c-1.321-.951-1.846-1.495-1.846-2.495 0-.988.748-1.78 2.022-1.78a2.664 2.664 0 012.64 1.863h.205l-.244-2.292a22.467 22.467 0 00-2.387-.23c-2.397 0-3.931 1.212-3.931 3.012 0 1.583.932 2.628 2.678 3.916l.732.539c1.323.947 1.742 1.566 1.742 2.598a2.145 2.145 0 01-.679 1.563 2.135 2.135 0 01-1.6.572 3.225 3.225 0 01-3.133-2.247h-.2l.225 2.472zm10.145.182v-.123a.956.956 0 00.886-.88v-8.313c-.007-.092-.065-.24-.213-.24h-1.563a2.308 2.308 0 00-2.061 1.428h-.122l.393-2.099h8.96l.39 2.1h-.118a2.299 2.299 0 00-2.054-1.43h-1.58c-.147 0-.194.149-.2.24v8.315a.954.954 0 00.881.88v.122h-3.599zm24.97-.182v.184h7.136l.358-2.192h-.177c-.289.609-.79 1.45-2.476 1.45h-1.981a.169.169 0 01-.109-.183v-4.163h1.928a1.518 1.518 0 011.647 1.113h.152v-2.932h-.152a1.51 1.51 0 01-1.647 1.127h-1.928v-3.558a.168.168 0 01.117-.184h2.269a2.05 2.05 0 011.982 1.156h.183l-.325-1.86h-6.977v.184c.473.052.857.404.952.87v8.104a1.099 1.099 0 01-.952.884zm57.381 0v.184h7.138l.357-2.192h-.175c-.291.609-.791 1.45-2.478 1.45h-1.982a.167.167 0 01-.106-.183v-4.163h1.929a1.509 1.509 0 011.641 1.114h.156v-2.933h-.156a1.503 1.503 0 01-1.641 1.127h-1.929v-3.558a.168.168 0 01.116-.184h2.27a2.05 2.05 0 011.982 1.156h.183l-.325-1.86h-6.98v.184c.465.097.928.412.954.87v8.104c-.09.473-.477.832-.954.884zm-13.458-.885c.088.472.474.831.95.884v.183h-3.701v-.183c.477-.053.865-.411.955-.884v-8.103a1.09 1.09 0 00-.955-.87v-.183h3.701v.183c-.473.05-.858.403-.95.87v8.103zm45.807.884a1.089 1.089 0 01-.953-.884V25.26c.092-.469.479-.822.953-.87v-.184h-3.704v.183c.474.05.861.402.956.87v8.103a1.1 1.1 0 01-.956.884v.183h3.704v-.183zm3.902.06v.123h3.598v-.123a.956.956 0 01-.884-.88v-8.313c.006-.092.055-.24.202-.24h1.579c.906.03 1.711.588 2.057 1.428h.117l-.39-2.099h-8.96l-.392 2.1h.119a2.31 2.31 0 012.059-1.43h1.567c.147 0 .206.149.213.24v8.315a.956.956 0 01-.885.88zm-101.376.123v-.123a.955.955 0 00.885-.88v-8.313c-.006-.092-.065-.24-.214-.24h-1.563a2.312 2.312 0 00-2.063 1.428h-.117l.391-2.099h8.959l.392 2.1h-.117a2.308 2.308 0 00-2.057-1.43h-1.578c-.149 0-.196.149-.201.24v8.315a.955.955 0 00.884.88v.122h-3.601zm87.906.281a17.93 17.93 0 01-2.396-.386l-.188-2.058h.168a2.612 2.612 0 002.608 1.768c1.299 0 1.901-.826 1.901-1.554 0-.77-.239-1.32-1.447-2.188l-.671-.493c-1.594-1.174-2.18-1.93-2.18-3.25 0-1.5 1.282-2.58 3.278-2.58.666.027 1.33.091 1.989.192l.204 1.911h-.171a2.16 2.16 0 00-2.196-1.481c-1.065 0-1.7.587-1.687 1.41.012.631.351 1.108 1.555 1.978l.41.278c1.746 1.276 2.543 2.004 2.543 3.392-.003 1.938-1.746 3.063-3.72 3.063v-.002zm-41.017-10.309v-.183l-2.747.001v.184c.476.053.863.411.953.884v6.195l-6.356-7.276h-2.85v.183c.473.05.86.403.954.87v8.103c-.091.472-.478.83-.954.884v.183h2.745v-.183a1.092 1.092 0 01-.953-.884v-7.296l7.711 8.858h.528v-9.639c.098-.474.489-.83.969-.884zm15.783 1.008c.272-.632-.037-.926-.508-1.026v-.176h2.388v.184a1.335 1.335 0 00-.985.871l-4.365 9.666h-.255l-4.435-9.666a1.295 1.295 0 00-.955-.871v-.184h3.613v.184c-.47.097-.836.367-.543 1.058l2.994 6.73 3.051-6.77zm-28.273-3.085v-.219h-4.299v.217c.562.119 1.116.495 1.15 1.046v6.351c0 3.047-1.271 4.274-3.524 4.274-2.252 0-3.528-1.227-3.528-4.274v-6.35c.034-.548.588-.927 1.15-1.045v-.219h-4.295v.22a1.283 1.283 0 011.117 1.045v6.096c0 3.56 1.919 5.243 5.556 5.243s5.552-1.683 5.552-5.243V23.37a1.284 1.284 0 011.121-1.046zM119.975 33.38l-4.376-9.665h-.245l-3.992 9.666a1.258 1.258 0 01-.915.87v.184h2.269v-.175c-.448-.1-.745-.398-.501-1.027l.85-2.067h4.003l.89 2.028c.29.686-.054.96-.499 1.058v.184h3.437v-.184a1.287 1.287 0 01-.921-.872zm-6.596-2.975h3.356l-1.733-3.944-1.623 3.944zM239.95 24.21v.183a1.54 1.54 0 00-1.114.87l-2.554 4.153v3.956c.089.473.475.832.951.885v.178h-3.703v-.178c.477-.055.864-.413.958-.885V29.92l-2.911-4.656a1.673 1.673 0 00-1.095-.875v-.183h3.665v.183c-.466.097-.972.324-.543 1.059l2.158 3.59 2.295-3.63c.38-.696-.039-.927-.512-1.028v-.172l2.405.003zm-34.964 8.34l-.046-.06-2.076-3.124s2.347-.335 2.347-2.508c0-2.106-2.108-2.652-3.854-2.652h-4.371v.183c.474.049.861.402.955.87v8.103c-.09.473-.477.832-.955.884v.183h3.703v-.183a1.086 1.086 0 01-.947-.884v-8.263c0-.112.036-.168.134-.194a7.651 7.651 0 011.122-.061c.841 0 2.349.287 2.349 2.217 0 1.999-2.293 2.121-3.147 2.121v.203c.459.07.859.35 1.081.76l2.232 3.345a2.608 2.608 0 002.058.942h1.603v-.213c-1.015-.139-1.594-.895-2.188-1.67z" fill="#00366A"/><path fill-rule="evenodd" clip-rule="evenodd" d="M98.33 6.822l4.42 9.519 4.435-9.52h3.149v.217a1.312 1.312 0 00-1.141 1.046v9.727c.107.567.569.999 1.141 1.065v.217h-4.292v-.217a1.319 1.319 0 001.144-1.065V9.073l-4.974 10.61h-.227l-5.013-10.63v8.758c.107.567.57 1 1.143 1.065v.217H94.82v-.217a1.317 1.317 0 001.146-1.065V8.084a1.314 1.314 0 00-1.146-1.046v-.216h3.51zm44.904 7.16c0-2.963 2.251-5.352 5.935-5.352l-.001.002c3.687 0 5.936 2.384 5.936 5.35 0 2.967-2.169 5.389-5.935 5.389-3.766 0-5.935-2.425-5.935-5.388zm54.446 5.11v-.123a.959.959 0 00.888-.881V9.774c-.007-.092-.065-.24-.214-.24h-1.561a2.32 2.32 0 00-2.066 1.43h-.116l.394-2.101h8.956l.392 2.1h-.118a2.304 2.304 0 00-2.056-1.429H200.6c-.15 0-.196.148-.204.24v8.314a.959.959 0 00.885.88v.123h-3.601zm-84.944-.001v-.184c.477-.055.863-.414.955-.887v-8.1a1.099 1.099 0 00-.955-.873v-.183h6.978l.322 1.86h-.183a2.051 2.051 0 00-1.984-1.159h-2.271a.175.175 0 00-.116.19v3.555h1.93c.754.094 1.46-.39 1.647-1.128h.152v2.932h-.152a1.516 1.516 0 00-1.647-1.112h-1.93v4.167a.17.17 0 00.11.184h1.981c1.687 0 2.186-.842 2.477-1.45h.176l-.357 2.191-7.133-.003zm79.718-1.07c.088.474.474.834.951.888v.183h-3.702v-.183c.478-.054.864-.414.953-.887V9.92a1.09 1.09 0 00-.953-.873v-.183h3.702v.183c-.474.05-.859.404-.951.873v8.102zm-68.125.948v.122h3.604v-.122a.956.956 0 01-.884-.88V9.775c.007-.092.05-.24.201-.24h1.579c.906.03 1.711.59 2.055 1.43h.115l-.387-2.1h-8.959l-.393 2.1h.118a2.317 2.317 0 012.063-1.43h1.563c.147 0 .206.148.213.24v8.314a.955.955 0 01-.888.88zm24.839-.306c-2.445 0-3.875-2.141-3.875-4.682 0-2.525 1.485-4.68 3.875-4.68 2.39 0 3.875 2.155 3.875 4.68 0 2.542-1.433 4.685-3.876 4.685l.001-.003zm17.93-4.68c0-2.963 2.252-5.353 5.934-5.353v.002c3.685 0 5.935 2.384 5.935 5.35 0 2.967-2.17 5.389-5.935 5.389-3.765 0-5.934-2.425-5.934-5.388zm5.934 4.68c-2.446 0-3.876-2.141-3.876-4.682 0-2.525 1.484-4.68 3.876-4.68 2.391 0 3.873 2.155 3.873 4.68 0 2.542-1.43 4.685-3.874 4.685l.001-.003zm7.746-9.68a.953.953 0 01.884.88v8.155a1.1 1.1 0 01-.953.887v.184h7.51l.459-2.536h-.157a2.722 2.722 0 01-2.549 1.863h-2.277c-.146 0-.195-.146-.201-.24V9.862a.953.953 0 01.884-.88V8.86h-3.6v.122zm45.307.08v-.184l-2.742-.001v.183c.477.053.864.413.95.887v6.199l-6.357-7.28h-2.848v.18c.474.05.86.404.954.872v8.103a1.1 1.1 0 01-.954.887v.184h2.746v-.184a1.092 1.092 0 01-.954-.887v-7.296l7.712 8.86h.528V9.95a1.11 1.11 0 01.965-.887zm-12.964 8.973l-4.376-9.666h-.244l-3.99 9.666a1.26 1.26 0 01-.915.87v.184h2.268v-.177c-.45-.1-.748-.395-.503-1.025l.848-2.067h4.006l.889 2.026c.29.687-.053.961-.497 1.058v.184h3.436v-.184a1.278 1.278 0 01-.921-.869h-.001zm-6.594-2.975h3.356l-1.733-3.945-1.623 3.945zm-46.003-.828c.854 0 3.149-.14 3.149-2.337a2.249 2.249 0 00-2.348-2.391 8.05 8.05 0 00-1.126.053c-.1.029-.133.084-.133.197v8.267c.087.472.471.832.946.887v.184h-3.701v-.184a1.1 1.1 0 00.955-.887V9.92a1.092 1.092 0 00-.955-.872v-.183h4.372c1.743 0 3.853.745 3.853 2.851 0 3.422-4.257 3.086-5.013 2.719l.001-.201zm-20.186 2.953l-.028-.037-2.074-3.126s2.347-.335 2.347-2.508c0-2.106-2.109-2.651-3.856-2.651h-4.37v.183c.474.05.86.404.953.872v8.103a1.095 1.095 0 01-.953.887v.184h3.701v-.184a1.089 1.089 0 01-.946-.887V9.757c0-.113.031-.169.132-.197.374-.045.75-.065 1.127-.057.84 0 2.345.288 2.345 2.217 0 2-2.292 2.123-3.146 2.123v.2c.459.07.859.352 1.08.761l2.231 3.342a2.609 2.609 0 002.056.944h1.604v-.214c-1.024-.14-1.608-.907-2.203-1.69z" fill="#C30032"/><path d="M66.648 13.221l-12.794-11.5a.73.73 0 00-.9-.138.74.74 0 00-.34.85l.177.648c.02.054-.028.062-.053.053a15.691 15.691 0 00-5.38-.979c-2.928-.013-5.459.766-7.906 1.52-2.056.61-3.998 1.21-5.886 1.201-2.146-.01-3.997-.816-5.873-2.464-.672-.59-1.49-.24-1.31.662a8.162 8.162 0 001.466 3.322c.035.043.013.077-.027.082a27.192 27.192 0 01-3.388.218c-1.98.033-3.95-.29-5.818-.95-.828-.32-1.535.414-.856 1.13a13.308 13.308 0 003.272 2.75.056.056 0 01-.01.103 20.77 20.77 0 01-4.444.426 53.494 53.494 0 01-5.437-.459.722.722 0 00-.762.403.732.732 0 00.16.851 12.022 12.022 0 004.406 2.345.05.05 0 01.014.094C6.784 16.797 1.818 20.117.856 20.825c-1.566 1.107-.862 2.518 1.128 2.104 1.028-.211 8.502-1.795 14.773-2.384.081-.008.095.024.022.05-4.66 1.52-8.433 3.282-10.14 4.658a.714.714 0 00-.226.949c.186.326.592.45.927.282a75.5 75.5 0 0111.087-2.411c.07-.01.086.029.024.061a25.97 25.97 0 00-6.69 4.536c-.643.632-.112 1.661.875 1.147a49.11 49.11 0 0111.432-4.122c.052-.012.087.03.055.066a13.648 13.648 0 00-2.074 2.588c-.574.93-.259 1.617 1.686 1.255C35.674 27.4 47.64 30.753 55.76 39.389c.78.832 1.522.463 1.457-.332a23.345 23.345 0 01-.184-3.087c.161-4.753 1.251-7.737 7.32-8.965 6.35-1.256 16.835-1.685 20.953-1.882l2.72-1.856c-5.715-1.02-17.52-2.23-24.741-2.14-.746.008-.823-.151-.056-.246 3.553-.45 15.748-1.661 27.042 1.806l3.259-1.084c-6.313-4.358-15.27-6.755-26.882-8.382z" fill="#fff"/><path fill-rule="evenodd" clip-rule="evenodd" d="M55.285 7.661a20.165 20.165 0 00-5.11-2.474c-4.57-1.177-9.433.377-11.288.97l-.44.138c-4.477 1.341-7.391.3-8.453-.185-.183-.087-.2-.012-.075.084a9.963 9.963 0 003.849 1.819c1.486.327 3.49.174 5.829-.294.297-.058.673-.152 1.105-.26 1.795-.448 4.556-1.138 6.613-.56.06.018.06.077 0 .085-2.954.468-4.273 1.774-5.673 3.335C21.45 12.284 3.356 20.475 1.305 21.404l-.047.021c-.053.025-.086.007-.02-.041l.053-.036c1.09-.733 6.857-4.611 16.44-8.326.076-.03.078-.062-.026-.062a9.49 9.49 0 01-6.72-2.482c-.041-.037 0-.095.062-.085 6.222.898 9.363.352 12.278-.543.074-.022.14-.061-.014-.074-.643-.058-2.52-.484-5.035-3.303-.058-.062 0-.117.087-.085 4.391 1.704 9.752.786 10.695.602.1-.02.086-.094.034-.147a7.235 7.235 0 01-2.04-3.846c-.018-.096.086-.137.176-.057 4.324 3.868 8.143 2.701 12.433 1.39 4.007-1.224 8.426-2.574 14.054-.065.092.04.105 0 .088-.067l-.526-1.902c-.02-.085.035-.108.11-.048l12.951 11.618c10.803 1.482 19.915 3.876 25.68 7.573l-1.762.577c-13.127-3.825-26.053-1.997-31.93-1.122-4.122.589-8.465-.275-10.046-1.85-.07-.07.017-.146.123-.115 4.753 1.392 8.87-1.218 7.41-4.516l-3.91-1.44c-1.966-.283-3.555.624-3.625 2.23a3.086 3.086 0 002.138 3.082c.122.044.128.123 0 .11-1.857-.127-3.974-1.872-3.002-4.406.009-.025-.035-.05-.067-.037a4.459 4.459 0 01-2.494.266c-.076-.02-.075-.081 0-.097.545-.1 1.217-.45 1.98-.848 1.617-.841 3.64-1.894 5.709-1.23l4.167 1.447a4.419 4.419 0 002.644.085c.074-.024.057-.061.022-.084l-6.345-2.752c-6.758-2.48-11.057 1.336-11.765 2.066-.074.074-.077 0-.062-.062 1.17-3.733 6.622-5.896 12.218-3.828l9.4 4.23c.061.034.093-.011.042-.062l-7.788-6.778c-.055-.055-.108-.04-.08.034l.372 1.268c.03.085-.008.1-.081.05v.004zm-4.97 7.885c.076-.953.93-1.539 2.26-1.425v-.002c.585.044 1.147.24 1.633.57l-1.899-.009s-.044.022.01.034c1.079.25 1.718.89 1.557 1.665-.008.042.022.037.022.037l1.147.005c-.306.742-1.29 1.213-2.455 1.09-1.321-.144-2.353-1.034-2.275-1.965zm35.935 8.142c-33.457-5.114-54.09 1.512-62.664 5.21-.125.052-.105.108.027.08 16.757-3.075 27.982 5.213 31.45 8.793.046.048.122.073.094-.047-.194-.83-1.133-4.145-4.009-4.391-.117-.01-.154-.132-.032-.185a9.631 9.631 0 012.454-.567c.128-.015.146-.072.006-.154-.531-.313-2.175-1.091-5.983-1.39-.169-.008-.186-.14-.019-.193a17.905 17.905 0 015.681-.776c.147.005.16-.06.047-.11-.872-.364-4.118-1.353-11.277-1.045-.2.009-.222-.12-.02-.19 4.322-1.456 11.123-1.051 11.931-.994.165.011.169-.083.047-.117-4.416-1.2-11.104-1.625-21.027-.444-.235.029-.26-.066-.016-.14 5.315-1.66 16.384-3.175 23.767-2.908 2.126.079 2.256 1.706 1.576 2.349-5.011 4.91-2.916 10.058-2.015 12.272.065.16.124.306.174.435.034.085.128.069.118-.014a30.993 30.993 0 01-.197-3.05c.025-6.905 3.238-8.794 7.88-9.727 6.452-1.28 20.831-1.885 20.831-1.885l1.176-.812zm-5.844-5.617c-2.053-.31-11.95-1.67-19.195-.022l.003-.004c-.271.062-.233-.089-.073-.138l.035-.012c.683-.224 3.786-1.244 4.78-2.633a.234.234 0 01.183-.087l.032.004c1.168.138 9.191 1.081 14.257 2.826.12.042.223.102-.022.066z" fill="#00366A"/><path d="M7.127 25.907c3.116-.985 11.784-2.912 15.3-2.76.155.009.171.113.033.157-2.529.786-7.092 2.702-10.207 5.863-.077.08-.037.14.061.092a56.006 56.006 0 0114.21-4.754c.138-.029.171.022.03.114a14.223 14.223 0 00-3.928 4.1c-.064.101-.007.13.061.087a60.107 60.107 0 0120.13-8.228c.194-.045.176-.155-.034-.164-5.716-.237-15.19 1.226-19.019 2.5-.155.054-.172-.028-.031-.123 4.416-2.775 13.788-4.577 16.548-5.137.326-.062.201-.146-.018-.164-4.565-.352-11.689.582-17.29 1.974-.173.044-.188-.062-.013-.153a48.878 48.878 0 0115.76-4.408c.173-.012.164-.105-.02-.137-7.392-1.266-25.702 2.092-36.876 7.512-.042.02-.078.05.008.031 1.395-.299 13.5-2.848 19.937-2.612.159.004.163.1.012.14-6.748 1.771-12.632 4.19-14.7 5.956-.138.122-.05.142.046.114z" fill="#C30032"/></svg>